Coordinates
version=1
nRows=23
nColumns=32
inDegrees=no

Units are S.I. units (second, meters, Newtons, ...)
If the header above contains a line with 'inDegrees', this indicates whether rotational values are in degrees (yes) or radians (no).

endheader
time	pelvis_tilt	pelvis_list	pelvis_rotation	pelvis_tx	pelvis_ty	pelvis_tz	hip_flexion_r	hip_adduction_r	hip_rotation_r	knee_angle_r	ankle_angle_r	subtalar_angle_r	mtp_angle_r	hip_flexion_l	hip_adduction_l	hip_rotation_l	knee_angle_l	ankle_angle_l	subtalar_angle_l	mtp_angle_l	lumbar_extension	lumbar_bending	lumbar_rotation	arm_flex_r	arm_add_r	arm_rot_r	elbow_flex_r	arm_flex_l	arm_add_l	arm_rot_l	elbow_flex_l
1.59	-0.157402	0.0657219	0.00659846	0.907872	1.00623	-0.291611	-0.370322	-0.10378	-0.226542	0.775862	-0.638141	-0.480849	0.0510477	0.921407	-0.0388987	-0.318602	0.508724	-0.0882203	0.18022	0.0521187	-0.0262171	-0.12591	0.263243	-0.379362	-0.404953	0.208124	2.46565	-1.1526	-0.443634	-0.175629	2.17721
1.595	-0.153962	0.0555283	0.00782221	0.907199	1.00701	-0.290891	-0.354727	-0.0937709	-0.200201	0.85734	-0.647986	-0.520896	0.05114	0.894172	-0.0436554	-0.360882	0.440408	-0.101521	0.245698	0.0521133	-0.0334927	-0.117414	0.257413	-0.396618	-0.405025	0.207996	2.44512	-1.1361	-0.437735	-0.17405	2.16868
1.6	-0.150773	0.0462731	0.0116897	0.906377	1.00764	-0.290407	-0.336576	-0.0832822	-0.178371	0.940894	-0.65702	-0.550549	0.0512323	0.8699	-0.0458699	-0.404923	0.384221	-0.115441	0.307018	0.0521078	-0.0413366	-0.109983	0.248511	-0.414471	-0.403839	0.207943	2.42089	-1.11661	-0.43283	-0.170946	2.15883
1.605	-0.147932	0.0384089	0.0181751	0.90539	1.00813	-0.290166	-0.31598	-0.0730853	-0.161672	1.02588	-0.663232	-0.569935	0.0513246	0.848739	-0.0453345	-0.448646	0.340232	-0.129703	0.36157	0.0521024	-0.049643	-0.104094	0.236578	-0.432527	-0.401374	0.207959	2.39307	-1.09447	-0.429103	-0.166488	2.1479
1.61	-0.145404	0.0322361	0.0270983	0.904232	1.00849	-0.290163	-0.293195	-0.0638874	-0.150335	1.11167	-0.665	-0.579901	0.0514169	0.830447	-0.0420631	-0.489731	0.307868	-0.144225	0.407326	0.0520969	-0.0584321	-0.100029	0.221743	-0.450383	-0.397664	0.208046	2.36176	-1.07006	-0.426615	-0.160834	2.13605
1.615	-0.143051	0.0278777	0.0381567	0.902911	1.00875	-0.290379	-0.268593	-0.0562529	-0.144211	1.19763	-0.66138	-0.58187	0.0515092	0.814473	-0.0362933	-0.52591	0.28605	-0.15909	0.443115	0.0520915	-0.0678109	-0.0978573	0.204218	-0.467671	-0.392796	0.208202	2.32704	-1.04372	-0.425338	-0.154101	2.12343
1.62	-0.140666	0.0252962	0.0509538	0.901452	1.00893	-0.290782	-0.242606	-0.0505735	-0.142793	1.2832	-0.652222	-0.577634	0.0516015	0.800058	-0.0284474	-0.555259	0.27337	-0.174419	0.468747	0.052086	-0.07793	-0.0974577	0.1843	-0.484101	-0.386904	0.208423	2.28905	-1.01575	-0.425185	-0.146349	2.11014
1.625	-0.138008	0.0243506	0.0650187	0.899896	1.00906	-0.291332	-0.215674	-0.0470906	-0.145279	1.36784	-0.638089	-0.569129	0.0516938	0.78633	-0.019059	-0.576439	0.268268	-0.190252	0.484971	0.0520804	-0.088952	-0.0985834	0.162368	-0.499477	-0.380159	0.208704	2.24795	-0.986439	-0.426039	-0.137591	2.0962
1.63	-0.13482	0.0248704	0.0798289	0.898291	1.00916	-0.291988	-0.188211	-0.0459469	-0.150654	1.45112	-0.620052	-0.558212	0.051786	0.772393	-0.00868047	-0.588801	0.269197	-0.206463	0.493213	0.0520749	-0.101034	-0.100952	0.138873	-0.513705	-0.372749	0.209051	2.20397	-0.955996	-0.427774	-0.127797	2.08161
1.635	-0.130859	0.0267129	0.0948398	0.89669	1.00925	-0.292707	-0.160568	-0.047231	-0.157784	1.53269	-0.599401	-0.546465	0.0518783	0.757425	0.00218821	-0.592373	0.274784	-0.222723	0.495221	0.0520694	-0.114314	-0.104318	0.114311	-0.526781	-0.364869	0.20947	2.15742	-0.924592	-0.43027	-0.116929	2.06633
1.64	-0.125927	0.0297865	0.109523	0.895143	1.00934	-0.293455	-0.132999	-0.0509991	-0.165515	1.61227	-0.577352	-0.535054	0.0519705	0.740776	0.0131428	-0.587736	0.283965	-0.238448	0.492704	0.0520638	-0.128885	-0.108506	0.0891826	-0.538779	-0.356699	0.209955	2.10866	-0.892349	-0.433421	-0.104959	2.05034
1.645	-0.119918	0.0340399	0.12341	0.893691	1.00942	-0.294205	-0.105598	-0.0572799	-0.172773	1.68966	-0.5548	-0.524625	0.0520628	0.722061	0.0238947	-0.57582	0.29605	-0.252695	0.487059	0.0520582	-0.14476	-0.113418	0.0639532	-0.549841	-0.348399	0.210484	2.05809	-0.85935	-0.437134	-0.0918966	2.03362
1.65	-0.11286	0.0394245	0.136127	0.892363	1.00946	-0.294934	-0.0782476	-0.066051	-0.178631	1.76472	-0.532186	-0.515302	0.052155	0.701204	0.0342718	-0.557706	0.310726	-0.264016	0.47925	0.0520526	-0.161813	-0.118999	0.039006	-0.560152	-0.34011	0.211021	2.00617	-0.825658	-0.441321	-0.0778121	2.01626
1.655	-0.104945	0.0458453	0.147422	0.891172	1.00942	-0.29563	-0.0505812	-0.0771931	-0.182347	1.83733	-0.509528	-0.506796	0.0522472	0.678442	0.044194	-0.534487	0.328012	-0.270344	0.469829	0.052047	-0.179763	-0.125198	0.0146122	-0.569925	-0.331973	0.211541	1.95336	-0.791343	-0.445883	-0.0628608	1.99845
1.66	-0.096509	0.0531209	0.157173	0.89012	1.00923	-0.296281	-0.0219971	-0.0904391	-0.183362	1.90744	-0.486551	-0.49859	0.0523395	0.654269	0.0536329	-0.507218	0.348172	-0.269026	0.459057	0.0520413	-0.198163	-0.131919	-0.00908394	-0.579373	-0.324143	0.21205	1.90013	-0.756507	-0.4507	-0.0473013	1.98052
1.665	-0.0879913	0.0609692	0.165376	0.889196	1.00878	-0.296882	0.00828086	-0.105349	-0.181291	1.97493	-0.462858	-0.490101	0.0524317	0.629334	0.062572	-0.476926	0.371597	-0.257111	0.447009	0.0520356	-0.216459	-0.138998	-0.0320592	-0.588689	-0.316811	0.212611	1.84697	-0.721303	-0.455616	-0.0315087	1.96299
1.67	-0.0798594	0.069031	0.172108	0.888385	1.008	-0.297428	0.0410981	-0.121336	-0.175892	2.03965	-0.438079	-0.480805	0.0525239	0.604306	0.0709814	-0.44466	0.398655	-0.231876	0.433638	0.0520299	-0.234053	-0.146199	-0.0543816	-0.59804	-0.310215	0.213337	1.79438	-0.685959	-0.460436	-0.015976	1.94649
1.675	-0.0725269	0.0769167	0.177484	0.887654	1.00679	-0.297916	0.0772301	-0.137741	-0.167046	2.10136	-0.411976	-0.470297	0.0526161	0.579735	0.0788022	-0.41154	0.429513	-0.191536	0.418823	0.0520242	-0.250406	-0.153239	-0.0761711	-0.607557	-0.304641	0.214379	1.7429	-0.650792	-0.464921	-0.00130157	1.93181
1.68	-0.0662687	0.0842533	0.181627	0.886969	1.0051	-0.298346	0.117239	-0.153909	-0.15476	2.1597	-0.384501	-0.458305	0.0527082	0.555928	0.0859534	-0.37871	0.463987	-0.135918	0.402377	0.0520184	-0.265118	-0.159808	-0.0975771	-0.617352	-0.300409	0.215891	1.69308	-0.616213	-0.468799	0.011849	1.9198
1.685	-0.0611834	0.0907365	0.184675	0.886298	1.00294	-0.29872	0.161378	-0.169282	-0.1392	2.21416	-0.355795	-0.444668	0.0528004	0.532913	0.0923709	-0.347173	0.501453	-0.0668469	0.384019	0.0520127	-0.277981	-0.1656	-0.118771	-0.62753	-0.297837	0.217984	1.64552	-0.582696	-0.471788	0.0228118	1.9113
1.69	-0.0572093	0.0961701	0.186794	0.885615	1.00037	-0.299048	0.209571	-0.183479	-0.12072	2.26414	-0.326146	-0.429297	0.0528926	0.510479	0.098051	-0.31757	0.540883	0.0119509	0.363413	0.0520069	-0.288978	-0.170352	-0.139945	-0.6382	-0.297199	0.220688	1.60087	-0.55073	-0.47363	0.0310129	1.90703
1.695	-0.0541792	0.100465	0.188195	0.88491	0.997477	-0.299339	0.261467	-0.196311	-0.0998914	2.30896	-0.295946	-0.41217	0.0529848	0.488272	0.103023	-0.290088	0.58099	0.0954873	0.340401	0.052001	-0.298216	-0.17385	-0.161301	-0.6495	-0.298672	0.223919	1.55976	-0.520747	-0.474124	0.0360536	1.9075
1.7	-0.0519055	0.103578	0.189128	0.884195	0.99437	-0.299605	0.316548	-0.207694	-0.0775151	2.34791	-0.265651	-0.393369	0.0530769	0.465894	0.107244	-0.264524	0.620419	0.178531	0.315286	0.0519952	-0.305821	-0.175893	-0.183002	-0.661609	-0.302306	0.227465	1.5228	-0.493081	-0.473143	0.0377764	1.91293
